<svg xmlns="http://www.w3.org/2000/svg" xmlns:xlink="http://www.w3.org/1999/xlink" width="500" zoomAndPan="magnify" viewBox="0 0 375 374.999991" height="500" preserveAspectRatio="xMidYMid meet" version="1.0"><defs><g/></defs><rect x="-37.5" width="450" fill="#ffffff" y="-37.499999" height="449.999989" fill-opacity="1"/><rect x="-37.5" width="450" fill="#ffffff" y="-37.499999" height="449.999989" fill-opacity="1"/><g fill="#f4ce14" fill-opacity="1"><g transform="translate(21.298466, 349.704015)"><g><path d="M 54.734375 -45.46875 L 54.734375 -215.171875 C 54.734375 -218.125 52.21875 -220.640625 49.265625 -220.640625 L 48 -220.640625 C 45.0625 -220.640625 42.53125 -223.171875 42.53125 -226.125 L 42.53125 -235.375 C 42.53125 -238.328125 45.0625 -240.859375 48 -240.859375 L 98.109375 -240.859375 C 101.0625 -240.859375 103.578125 -238.328125 103.578125 -235.375 L 103.578125 -65.6875 C 103.578125 -62.734375 106.109375 -60.21875 109.0625 -60.21875 L 110.328125 -60.21875 C 113.265625 -60.21875 115.796875 -57.6875 115.796875 -54.734375 L 115.796875 -45.46875 C 115.796875 -42.53125 113.265625 -40 110.328125 -40 L 60.21875 -40 C 57.265625 -40 54.734375 -42.53125 54.734375 -45.46875 Z M 48 0 L 110.328125 0 C 113.265625 0 115.796875 -2.53125 115.796875 -5.46875 L 115.796875 -14.734375 C 115.796875 -17.6875 118.328125 -20.21875 121.265625 -20.21875 L 134.75 -20.21875 C 137.6875 -20.21875 140.21875 -22.734375 140.21875 -25.6875 L 140.21875 -34.53125 C 140.21875 -37.46875 142.75 -40 145.6875 -40 L 146.953125 -40 C 149.90625 -40 152.4375 -42.53125 152.4375 -45.46875 L 152.4375 -235.375 C 152.4375 -238.328125 149.90625 -240.859375 146.953125 -240.859375 L 145.6875 -240.859375 C 142.75 -240.859375 140.21875 -243.390625 140.21875 -246.328125 L 140.21875 -255.171875 C 140.21875 -258.125 137.6875 -260.640625 134.75 -260.640625 L 121.265625 -260.640625 C 118.328125 -260.640625 115.796875 -263.171875 115.796875 -266.125 L 115.796875 -275.390625 C 115.796875 -278.328125 113.265625 -280.859375 110.328125 -280.859375 L 48 -280.859375 C 45.0625 -280.859375 42.53125 -278.328125 42.53125 -275.390625 L 42.53125 -266.125 C 42.53125 -263.171875 40 -260.640625 37.0625 -260.640625 L 23.578125 -260.640625 C 20.640625 -260.640625 18.109375 -258.125 18.109375 -255.171875 L 18.109375 -246.328125 C 18.109375 -243.390625 15.578125 -240.859375 12.625 -240.859375 L 11.375 -240.859375 C 8.421875 -240.859375 5.890625 -238.328125 5.890625 -235.375 L 5.890625 -45.46875 C 5.890625 -42.53125 8.421875 -40 11.375 -40 L 12.625 -40 C 15.578125 -40 18.109375 -37.46875 18.109375 -34.53125 L 18.109375 -25.6875 C 18.109375 -22.734375 20.640625 -20.21875 23.578125 -20.21875 L 37.0625 -20.21875 C 40 -20.21875 42.53125 -17.6875 42.53125 -14.734375 L 42.53125 -5.46875 C 42.53125 -2.53125 45.0625 0 48 0 Z M 48 0 "/></g></g></g><g fill="#f4ce14" fill-opacity="1"><g transform="translate(179.615059, 349.704015)"><g><path d="M 11.375 0 L 49.265625 0 C 52.21875 0 54.734375 -2.53125 54.734375 -5.46875 L 54.734375 -34.53125 C 54.734375 -37.46875 57.265625 -40 60.21875 -40 L 61.484375 -40 C 64.421875 -40 66.953125 -42.53125 66.953125 -45.46875 L 66.953125 -54.734375 C 66.953125 -57.6875 69.484375 -60.21875 72.421875 -60.21875 L 73.6875 -60.21875 C 76.640625 -60.21875 79.15625 -62.734375 79.15625 -65.6875 L 79.15625 -74.53125 C 79.15625 -77.484375 81.6875 -80 84.640625 -80 L 85.90625 -80 C 88.84375 -80 91.375 -77.484375 91.375 -74.53125 L 91.375 -65.6875 C 91.375 -62.734375 93.90625 -60.21875 96.84375 -60.21875 L 98.109375 -60.21875 C 101.0625 -60.21875 103.578125 -57.6875 103.578125 -54.734375 L 103.578125 -45.46875 C 103.578125 -42.53125 106.109375 -40 109.0625 -40 L 110.328125 -40 C 113.265625 -40 115.796875 -37.46875 115.796875 -34.53125 L 115.796875 -5.46875 C 115.796875 -2.53125 118.328125 0 121.265625 0 L 159.171875 0 C 162.109375 0 164.640625 -2.53125 164.640625 -5.46875 L 164.640625 -34.53125 C 164.640625 -37.46875 162.109375 -40 159.171875 -40 L 157.90625 -40 C 154.953125 -40 152.4375 -42.53125 152.4375 -45.46875 L 152.4375 -54.734375 C 152.4375 -57.6875 149.90625 -60.21875 146.953125 -60.21875 L 145.6875 -60.21875 C 142.75 -60.21875 140.21875 -62.734375 140.21875 -65.6875 L 140.21875 -74.53125 C 140.21875 -77.484375 137.6875 -80 134.75 -80 L 121.265625 -80 C 118.328125 -80 115.796875 -82.53125 115.796875 -85.484375 L 115.796875 -114.53125 C 115.796875 -117.484375 118.328125 -120 121.265625 -120 L 134.75 -120 C 137.6875 -120 140.21875 -122.53125 140.21875 -125.484375 L 140.21875 -135.171875 C 140.21875 -138.109375 142.75 -140.640625 145.6875 -140.640625 L 146.953125 -140.640625 C 149.90625 -140.640625 152.4375 -143.171875 152.4375 -146.109375 L 152.4375 -154.953125 C 152.4375 -157.90625 154.953125 -160.4375 157.90625 -160.4375 L 159.171875 -160.4375 C 162.109375 -160.4375 164.640625 -162.953125 164.640625 -165.90625 L 164.640625 -194.953125 C 164.640625 -197.90625 162.109375 -200.4375 159.171875 -200.4375 L 121.265625 -200.4375 C 118.328125 -200.4375 115.796875 -197.90625 115.796875 -194.953125 L 115.796875 -165.90625 C 115.796875 -162.953125 113.265625 -160.4375 110.328125 -160.4375 L 109.0625 -160.4375 C 106.109375 -160.4375 103.578125 -157.90625 103.578125 -154.953125 L 103.578125 -146.109375 C 103.578125 -143.171875 101.0625 -140.640625 98.109375 -140.640625 L 96.84375 -140.640625 C 93.90625 -140.640625 91.375 -138.109375 91.375 -135.171875 L 91.375 -125.484375 C 91.375 -122.53125 88.84375 -120 85.90625 -120 L 84.640625 -120 C 81.6875 -120 79.15625 -122.53125 79.15625 -125.484375 L 79.15625 -135.171875 C 79.15625 -138.109375 76.640625 -140.640625 73.6875 -140.640625 L 72.421875 -140.640625 C 69.484375 -140.640625 66.953125 -143.171875 66.953125 -146.109375 L 66.953125 -154.953125 C 66.953125 -157.90625 64.421875 -160.4375 61.484375 -160.4375 L 60.21875 -160.4375 C 57.265625 -160.4375 54.734375 -162.953125 54.734375 -165.90625 L 54.734375 -194.953125 C 54.734375 -197.90625 52.21875 -200.4375 49.265625 -200.4375 L 11.375 -200.4375 C 8.421875 -200.4375 5.890625 -197.90625 5.890625 -194.953125 L 5.890625 -165.90625 C 5.890625 -162.953125 8.421875 -160.4375 11.375 -160.4375 L 12.625 -160.4375 C 15.578125 -160.4375 18.109375 -157.90625 18.109375 -154.953125 L 18.109375 -146.109375 C 18.109375 -143.171875 20.640625 -140.640625 23.578125 -140.640625 L 24.84375 -140.640625 C 27.796875 -140.640625 30.3125 -138.109375 30.3125 -135.171875 L 30.3125 -125.484375 C 30.3125 -122.53125 32.84375 -120 35.796875 -120 L 49.265625 -120 C 52.21875 -120 54.734375 -117.484375 54.734375 -114.53125 L 54.734375 -85.484375 C 54.734375 -82.53125 52.21875 -80 49.265625 -80 L 35.796875 -80 C 32.84375 -80 30.3125 -77.484375 30.3125 -74.53125 L 30.3125 -65.6875 C 30.3125 -62.734375 27.796875 -60.21875 24.84375 -60.21875 L 23.578125 -60.21875 C 20.640625 -60.21875 18.109375 -57.6875 18.109375 -54.734375 L 18.109375 -45.46875 C 18.109375 -42.53125 15.578125 -40 12.625 -40 L 11.375 -40 C 8.421875 -40 5.890625 -37.46875 5.890625 -34.53125 L 5.890625 -5.46875 C 5.890625 -2.53125 8.421875 0 11.375 0 Z M 11.375 0 "/></g></g></g><path stroke-linecap="butt" transform="matrix(2.199615, 0, 0, 2.199615, 0.0000045, -111.077674)" fill="none" stroke-linejoin="miter" d="M 34.066678 183.343281 L 34.066678 106.181354 C 34.066678 104.826359 32.944322 103.705779 31.589327 103.705779 L 31.028149 103.705779 C 29.673154 103.705779 28.552575 102.537251 28.552575 101.18048 L 28.552575 96.975199 C 28.552575 95.666377 29.673154 94.497848 31.028149 94.497848 L 53.789586 94.497848 C 55.144581 94.497848 56.313109 95.666377 56.313109 96.975199 L 56.313109 174.13535 C 56.313109 175.490345 57.433689 176.612701 58.79046 176.612701 L 59.349862 176.612701 C 60.706633 176.612701 61.827213 177.781229 61.827213 179.136224 L 61.827213 183.343281 C 61.827213 184.652103 60.706633 185.820631 59.349862 185.820631 L 36.590201 185.820631 C 35.235206 185.820631 34.066678 184.652103 34.066678 183.343281 Z M 31.028149 204.000301 L 59.349862 204.000301 C 60.706633 204.000301 61.827213 202.831773 61.827213 201.52295 L 61.827213 197.315894 C 61.827213 195.960898 62.995741 194.79237 64.350736 194.79237 L 70.473966 194.79237 C 71.782788 194.79237 72.951316 193.671791 72.951316 192.316795 L 72.951316 188.296206 C 72.951316 186.941211 74.119844 185.820631 75.428667 185.820631 L 76.036017 185.820631 C 77.34484 185.820631 78.511592 184.652103 78.511592 183.343281 L 78.511592 96.975199 C 78.511592 95.666377 77.34484 94.497848 76.036017 94.497848 L 75.428667 94.497848 C 74.119844 94.497848 72.951316 93.375493 72.951316 92.020498 L 72.951316 88.001684 C 72.951316 86.646689 71.782788 85.524334 70.473966 85.524334 L 64.350736 85.524334 C 62.995741 85.524334 61.827213 84.355806 61.827213 83.00081 L 61.827213 78.79553 C 61.827213 77.486707 60.706633 76.318179 59.349862 76.318179 L 31.028149 76.318179 C 29.673154 76.318179 28.552575 77.486707 28.552575 78.79553 L 28.552575 83.00081 C 28.552575 84.355806 27.384046 85.524334 26.027275 85.524334 L 19.905822 85.524334 C 18.596999 85.524334 17.428471 86.646689 17.428471 88.001684 L 17.428471 92.020498 C 17.428471 93.375493 16.306116 94.497848 14.95112 94.497848 L 14.389943 94.497848 C 13.034947 94.497848 11.866419 95.666377 11.866419 96.975199 L 11.866419 183.343281 C 11.866419 184.652103 13.034947 185.820631 14.389943 185.820631 L 14.95112 185.820631 C 16.306116 185.820631 17.428471 186.941211 17.428471 188.296206 L 17.428471 192.316795 C 17.428471 193.671791 18.596999 194.79237 19.905822 194.79237 L 26.027275 194.79237 C 27.384046 194.79237 28.552575 195.960898 28.552575 197.315894 L 28.552575 201.52295 C 28.552575 202.831773 29.673154 204.000301 31.028149 204.000301 Z M 86.366303 204.000301 L 103.563912 204.000301 C 104.918908 204.000301 106.041263 202.831773 106.041263 201.52295 L 106.041263 188.296206 C 106.041263 186.941211 107.209791 185.820631 108.564786 185.820631 L 109.125964 185.820631 C 110.480959 185.820631 111.603315 184.652103 111.603315 183.343281 L 111.603315 179.136224 C 111.603315 177.781229 112.771843 176.612701 114.126838 176.612701 L 114.688016 176.612701 C 115.996838 176.612701 117.163591 175.490345 117.163591 174.13535 L 117.163591 170.116536 C 117.163591 168.761541 118.332119 167.639186 119.640941 167.639186 L 120.248292 167.639186 C 121.557114 167.639186 122.725643 168.761541 122.725643 170.116536 L 122.725643 174.13535 C 122.725643 175.490345 123.847998 176.612701 125.202993 176.612701 L 125.764171 176.612701 C 127.119166 176.612701 128.287694 177.781229 128.287694 179.136224 L 128.287694 183.343281 C 128.287694 184.652103 129.41005 185.820631 130.765045 185.820631 L 131.326223 185.820631 C 132.681218 185.820631 133.801798 186.941211 133.801798 188.296206 L 133.801798 201.52295 C 133.801798 202.831773 134.970326 204.000301 136.325321 204.000301 L 153.524706 204.000301 C 154.879701 204.000301 156.048229 202.831773 156.048229 201.52295 L 156.048229 188.296206 C 156.048229 186.941211 154.879701 185.820631 153.524706 185.820631 L 152.963528 185.820631 C 151.608533 185.820631 150.486177 184.652103 150.486177 183.343281 L 150.486177 179.136224 C 150.486177 177.781229 149.319425 176.612701 148.010603 176.612701 L 147.403252 176.612701 C 146.094429 176.612701 144.925901 175.490345 144.925901 174.13535 L 144.925901 170.116536 C 144.925901 168.761541 143.757373 167.639186 142.448551 167.639186 L 136.325321 167.639186 C 134.970326 167.639186 133.801798 166.470658 133.801798 165.161835 L 133.801798 151.936867 C 133.801798 150.580096 134.970326 149.459516 136.325321 149.459516 L 142.448551 149.459516 C 143.757373 149.459516 144.925901 148.290988 144.925901 146.935993 L 144.925901 142.542469 C 144.925901 141.233646 146.094429 140.065118 147.403252 140.065118 L 148.010603 140.065118 C 149.319425 140.065118 150.486177 138.89659 150.486177 137.587768 L 150.486177 133.568954 C 150.486177 132.213959 151.608533 131.045431 152.963528 131.045431 L 153.524706 131.045431 C 154.879701 131.045431 156.048229 129.923075 156.048229 128.56808 L 156.048229 115.389285 C 156.048229 114.034289 154.879701 112.865761 153.524706 112.865761 L 136.325321 112.865761 C 134.970326 112.865761 133.801798 114.034289 133.801798 115.389285 L 133.801798 128.56808 C 133.801798 129.923075 132.681218 131.045431 131.326223 131.045431 L 130.765045 131.045431 C 129.41005 131.045431 128.287694 132.213959 128.287694 133.568954 L 128.287694 137.587768 C 128.287694 138.89659 127.119166 140.065118 125.764171 140.065118 L 125.202993 140.065118 C 123.847998 140.065118 122.725643 141.233646 122.725643 142.542469 L 122.725643 146.935993 C 122.725643 148.290988 121.557114 149.459516 120.248292 149.459516 L 119.640941 149.459516 C 118.332119 149.459516 117.163591 148.290988 117.163591 146.935993 L 117.163591 142.542469 C 117.163591 141.233646 115.996838 140.065118 114.688016 140.065118 L 114.126838 140.065118 C 112.771843 140.065118 111.603315 138.89659 111.603315 137.587768 L 111.603315 133.568954 C 111.603315 132.213959 110.480959 131.045431 109.125964 131.045431 L 108.564786 131.045431 C 107.209791 131.045431 106.041263 129.923075 106.041263 128.56808 L 106.041263 115.389285 C 106.041263 114.034289 104.918908 112.865761 103.563912 112.865761 L 86.366303 112.865761 C 85.009532 112.865761 83.841004 114.034289 83.841004 115.389285 L 83.841004 128.56808 C 83.841004 129.923075 85.009532 131.045431 86.366303 131.045431 L 86.925705 131.045431 C 88.282476 131.045431 89.403056 132.213959 89.403056 133.568954 L 89.403056 137.587768 C 89.403056 138.89659 90.571584 140.065118 91.880407 140.065118 L 92.487757 140.065118 C 93.79658 140.065118 94.965108 141.233646 94.965108 142.542469 L 94.965108 146.935993 C 94.965108 148.290988 96.085687 149.459516 97.442458 149.459516 L 103.563912 149.459516 C 104.918908 149.459516 106.041263 150.580096 106.041263 151.936867 L 106.041263 165.161835 C 106.041263 166.470658 104.918908 167.639186 103.563912 167.639186 L 97.442458 167.639186 C 96.085687 167.639186 94.965108 168.761541 94.965108 170.116536 L 94.965108 174.13535 C 94.965108 175.490345 93.79658 176.612701 92.487757 176.612701 L 91.880407 176.612701 C 90.571584 176.612701 89.403056 177.781229 89.403056 179.136224 L 89.403056 183.343281 C 89.403056 184.652103 88.282476 185.820631 86.925705 185.820631 L 86.366303 185.820631 C 85.009532 185.820631 83.841004 186.941211 83.841004 188.296206 L 83.841004 201.52295 C 83.841004 202.831773 85.009532 204.000301 86.366303 204.000301 Z M 86.366303 204.000301 " stroke="#45474b" stroke-width="4.068015" stroke-opacity="1" stroke-miterlimit="4"/></svg>